<svg width="163" height="40" viewBox="0 0 163 40" fill="none" xmlns="http://www.w3.org/2000/svg">
<path d="M60.7907 9.54102H58.363L53.8545 19.3719H56.2574L56.9758 17.6811H62.1284L62.8715 19.3719H65.2992L60.7907 9.54102ZM57.8428 15.7487L59.5768 11.7632L61.2861 15.7487H57.8428Z" fill="white"/>
<path d="M65.9927 19.3719V18.2367L70.8975 11.4251H66.2404V9.54102H73.895V10.483L69.0892 17.3188H74.0188V19.3719H65.9927Z" fill="white"/>
<path d="M0 40H40.7995V0H0V40ZM32.6743 32.029H8.12523V7.97101H32.6743V32.029Z" fill="white"/>
<path d="M78.2051 9.54102H75.9756V19.3719H78.2051V9.54102Z" fill="white"/>
<path d="M87.8913 19.3719L82.9121 13.0676L82.9864 16.3043V19.3719H80.7322V9.54102H82.6396L87.7179 15.9178L87.5693 12.826V9.54102H89.8235V19.3719H87.8913Z" fill="white"/>
<path d="M94.5301 19.3719V11.4734H91.4832V9.54102H99.8066V11.4734H96.7596V19.3719H94.5301Z" fill="white"/>
<path d="M101.466 19.3719V9.54102H108.923V11.5458H103.671V13.4299H108.601V15.3623H103.671V17.3429H109.121V19.3719H101.466Z" fill="white"/>
<path d="M111.177 19.3719V9.54102H113.406V17.3671H118.435V19.3719H111.177Z" fill="white"/>
<path d="M120.07 19.3719V9.54102H127.527V11.5458H122.275V13.4299H127.229V15.3623H122.275V17.3429H127.725V19.3719H120.07Z" fill="white"/>
<path d="M138.327 18.164C137.286 19.1544 135.973 19.6133 134.462 19.6133C130.647 19.6133 129.112 17.1979 129.112 14.5167C129.087 11.9805 130.796 9.29932 134.462 9.29932C135.85 9.29932 137.113 9.83072 138.153 10.8211L136.741 12.1737C136.147 11.594 135.255 11.3525 134.462 11.3525C132.183 11.3525 131.292 13.0916 131.316 14.5167C131.341 15.9418 132.109 17.5843 134.462 17.5843C135.255 17.5843 136.32 17.222 136.94 16.6423L138.327 18.164Z" fill="white"/>
<path d="M144.545 9.29932C141.324 9.29932 139.12 11.2558 139.12 14.4442C139.12 17.6568 141.324 19.5892 144.545 19.5892C147.74 19.5892 149.97 17.6326 149.97 14.4442C149.945 11.2558 147.74 9.29932 144.545 9.29932ZM144.545 17.6326C142.637 17.6326 141.324 16.3041 141.324 14.4442C141.324 12.6568 142.637 11.2558 144.545 11.2558C146.502 11.2558 147.765 12.6568 147.765 14.4442C147.765 16.28 146.477 17.6326 144.545 17.6326Z" fill="white"/>
<path d="M160.647 12.5362L157.55 16.3526H157.154L154.156 12.512V19.3719H151.927V9.54102H154.478L157.401 13.3333L160.349 9.54102H162.876V19.3719H160.647V12.5362Z" fill="white"/>
<path d="M130.549 28.261C130.053 28.7441 129.483 28.9856 128.814 28.9856C128.146 28.9856 127.65 28.7682 127.303 28.3334C127.006 27.9711 126.882 27.5363 126.857 27.0049V26.9808C126.857 26.4735 127.006 26.0146 127.303 25.6523C127.675 25.2175 128.17 24.9759 128.814 24.9759C129.409 24.9759 129.929 25.1933 130.375 25.604L131.663 24.3721C130.846 23.6233 129.904 23.2368 128.839 23.2368H128.814C127.526 23.2368 126.511 23.6474 125.792 24.4445C125.148 25.145 124.826 25.9904 124.826 26.9808V27.0049C124.826 28.0677 125.148 28.9373 125.768 29.5895C126.461 30.3383 127.502 30.7006 128.839 30.7006C130.028 30.7006 130.994 30.3383 131.787 29.5895L130.549 28.261Z" fill="white"/>
<path d="M134.661 28.7925V23.3818H132.58V30.5316H138.154V28.7925H134.661Z" fill="white"/>
<path d="M145.66 24.1786C144.916 23.5264 143.95 23.2124 142.736 23.2124H142.712C141.523 23.2124 140.532 23.5506 139.813 24.2027C139.045 24.8791 138.674 25.7969 138.674 26.9564C138.674 28.1158 139.045 29.0578 139.813 29.71C140.557 30.3622 141.523 30.7003 142.736 30.7003C143.975 30.7003 144.941 30.3863 145.66 29.71C146.403 29.0337 146.799 28.1158 146.799 26.9564C146.799 25.7969 146.427 24.8549 145.66 24.1786ZM144.173 28.4056C143.802 28.7921 143.306 28.9853 142.712 28.9853C142.142 28.9853 141.646 28.7921 141.275 28.4298C140.903 28.0433 140.705 27.5602 140.705 26.9805C140.705 26.4008 140.903 25.8936 141.275 25.5312C141.646 25.1689 142.117 24.9757 142.712 24.9757H142.736C143.331 24.9757 143.826 25.1689 144.173 25.5312C144.52 25.8936 144.718 26.3767 144.718 27.0047C144.718 27.5602 144.545 28.0433 144.173 28.4056Z" fill="white"/>
<path d="M152.596 23.4058V27.3913C152.596 28.4541 152.125 28.9613 151.208 28.9613C150.267 28.9613 149.821 28.4299 149.821 27.3671V23.4058H147.765V27.3671C147.765 28.4541 148.062 29.2753 148.682 29.855C149.276 30.4106 150.118 30.7004 151.208 30.7004C152.298 30.7004 153.116 30.4106 153.735 29.8309C154.354 29.2512 154.652 28.4541 154.652 27.4396V23.4058H152.596Z" fill="white"/>
<path d="M162.059 24.4203C161.39 23.7439 160.424 23.4058 159.185 23.4058H156.039V30.5555H159.185C160.424 30.5555 161.39 30.1932 162.083 29.4927C162.703 28.8405 163.025 27.9951 163.025 26.9565C163 25.8695 162.703 25.0483 162.059 24.4203ZM160.548 28.2367C160.25 28.6473 159.78 28.8405 159.16 28.8405H158.07V25.0724H159.16C159.755 25.0724 160.201 25.2657 160.523 25.628C160.795 25.942 160.944 26.3768 160.944 26.9082C160.944 27.4396 160.82 27.8985 160.548 28.2367Z" fill="white"/>
</svg>
